<svg width="1024" height="1024" viewBox="0 0 1024 1024" fill="none" xmlns="http://www.w3.org/2000/svg">
<rect width="1024" height="1024" fill="white"/>
<g clip-path="url(#clip0_3040_8217)">
<path d="M933.575 319.452V738.813C933.575 806.23 896.671 841 823.708 841H189.585C116.904 841 80 806.76 80 738.813V319.452C80 251.504 116.904 217 189.585 217H823.708C896.671 217 933.575 251.77 933.575 319.452ZM403.965 495.423C392.132 495.423 383.118 504.183 383.118 515.332C383.118 526.478 392.132 535.238 403.965 535.238H545.664C557.777 535.238 567.075 526.478 567.075 515.332C567.075 504.183 557.777 495.423 545.664 495.423H403.965ZM229.024 372.27L322.269 425.354L229.024 478.703C203.107 493.034 224.798 529.93 252.969 513.206L361.145 449.241C380.02 438.359 378.892 412.083 361.145 401.201L252.969 337.5C224.798 320.779 202.543 357.141 229.024 372.27Z" fill="black" fill-opacity="0.85"/>
</g>
<g clip-path="url(#clip1_3040_8217)">
<path d="M676.131 547.824H757.511C775.978 547.824 787.731 536.534 787.731 518.717V340.107C787.731 322.29 775.978 311 757.511 311H676.131C657.664 311 646 322.29 646 340.107V518.717C646 536.534 657.664 547.824 676.131 547.824ZM678.075 532.212C667.295 532.212 661.64 526.743 661.64 516.423V342.4C661.64 332.08 667.295 326.612 678.075 326.612H755.655C766.347 326.612 772.003 332.08 772.003 342.4V516.423C772.003 526.743 766.347 532.212 755.655 532.212H678.075ZM693.008 524.009H740.723C743.55 524.009 745.494 522.068 745.494 519.246C745.494 516.423 743.55 514.483 740.723 514.483H693.008C690.269 514.483 688.236 516.423 688.236 519.246C688.236 522.068 690.269 524.009 693.008 524.009ZM703.434 348.751H730.384C734.449 348.751 737.63 345.575 737.63 341.43C737.63 337.461 734.449 334.285 730.384 334.285H703.434C699.281 334.285 696.101 337.461 696.101 341.43C696.101 345.575 699.281 348.751 703.434 348.751Z" fill="white" fill-opacity="0.85"/>
</g>
<defs>
<clipPath id="clip0_3040_8217">
<rect width="864" height="624" fill="white" transform="translate(80 217)"/>
</clipPath>
<clipPath id="clip1_3040_8217">
<rect width="145" height="237" fill="white" transform="translate(646 311)"/>
</clipPath>
</defs>
</svg>
